<svg viewBox="0 0 91 28" xmlns="http://www.w3.org/2000/svg" xmlns:xlink="http://www.w3.org/1999/xlink" width="91.000000" height="28.000000" fill="none" customFrame="#000000">
	<defs>
		<clipPath id="clipPath_1">
			<rect width="27.000000" height="27.000000" x="0.000000" y="0.000000" fill="rgb(255,255,255)" />
		</clipPath>
	</defs>
	<g id="logo-abito">
		<g id="box 1" clip-path="url(#clipPath_1)" customFrame="url(#clipPath_1)">
			<rect id="box 1" width="27.000000" height="27.000000" x="0.000000" y="0.000000" fill="rgb(255,255,255)" fill-opacity="0" />
			<g id="Group">
				<path id="Vector" d="M26.9947 6.65895C26.9632 6.36854 26.7827 6.11151 26.513 5.98563L13.8567 0.0793852C13.6306 -0.0261362 13.3693 -0.0261362 13.1431 0.0793852L0.486896 5.98563C0.217213 6.11151 0.0367559 6.36848 0.00516797 6.65895C0.00448242 6.66501 0 6.7458 0 6.75023L0 21.094C0 21.439 0.210041 21.7493 0.530402 21.8773L13.1867 26.9398C13.2872 26.9801 13.3936 27.0002 13.5 27.0002C13.6064 27.0002 13.7128 26.9801 13.8133 26.9398L26.4696 21.8773C26.79 21.7493 27 21.439 27 21.094L27 6.75023C27 6.7458 26.9954 6.66496 26.9947 6.65895ZM13.5 1.77506L24.0334 6.69064L19.9774 8.31307L9.24576 3.7604L13.5 1.77506ZM7.18822 4.72059L17.7533 9.20264L13.5 10.904L2.96662 6.69064L7.18822 4.72059ZM1.6875 7.99645L12.6562 12.3839L12.6562 24.9102L1.6875 20.5227L1.6875 7.99645ZM14.3438 24.9103L14.3438 12.3839L25.3125 7.99645L25.3125 20.5227L14.3438 24.9103Z" fill="rgb(9.73958,20.4531,58.4375)" fill-rule="nonzero" />
			</g>
		</g>
		<path id="Abito" d="M44.1562 18.4844L37.9922 18.4844L36.8203 22L33.082 22L39.4336 4.9375L42.6914 4.9375L49.0781 22L45.3398 22L44.1562 18.4844ZM38.9414 15.6367L43.207 15.6367L41.0625 9.25L38.9414 15.6367ZM61.875 15.7773C61.875 17.8086 61.4414 19.3926 60.5742 20.5293C59.707 21.666 58.4961 22.2344 56.9414 22.2344C55.5664 22.2344 54.4688 21.707 53.6484 20.6523L53.4961 22L50.4492 22L50.4492 4L53.8359 4L53.8359 10.457C54.6172 9.54297 55.6445 9.08594 56.918 9.08594C58.4648 9.08594 59.6777 9.6543 60.5566 10.791C61.4355 11.9277 61.875 13.5273 61.875 15.5898L61.875 15.7773ZM58.4883 15.5312C58.4883 14.25 58.2852 13.3145 57.8789 12.7246C57.4727 12.1348 56.8672 11.8398 56.0625 11.8398C54.9844 11.8398 54.2422 12.2812 53.8359 13.1641L53.8359 18.168C54.25 19.0586 55 19.5039 56.0859 19.5039C57.1797 19.5039 57.8984 18.9648 58.2422 17.8867C58.4062 17.3711 58.4883 16.5859 58.4883 15.5312ZM67.5352 22L64.1367 22L64.1367 9.32031L67.5352 9.32031L67.5352 22ZM63.9375 6.03906C63.9375 5.53125 64.1074 5.11328 64.4473 4.78516C64.7871 4.45703 65.25 4.29297 65.8359 4.29297C66.4141 4.29297 66.875 4.45703 67.2188 4.78516C67.5625 5.11328 67.7344 5.53125 67.7344 6.03906C67.7344 6.55469 67.5605 6.97656 67.2129 7.30469C66.8652 7.63281 66.4062 7.79688 65.8359 7.79688C65.2656 7.79688 64.8066 7.63281 64.459 7.30469C64.1113 6.97656 63.9375 6.55469 63.9375 6.03906ZM74.3789 6.20312L74.3789 9.32031L76.5469 9.32031L76.5469 11.8047L74.3789 11.8047L74.3789 18.1328C74.3789 18.6016 74.4688 18.9375 74.6484 19.1406C74.8281 19.3438 75.1719 19.4453 75.6797 19.4453C76.0547 19.4453 76.3867 19.418 76.6758 19.3633L76.6758 21.9297C76.0117 22.1328 75.3281 22.2344 74.625 22.2344C72.25 22.2344 71.0391 21.0352 70.9922 18.6367L70.9922 11.8047L69.1406 11.8047L69.1406 9.32031L70.9922 9.32031L70.9922 6.20312L74.3789 6.20312ZM77.5547 15.543C77.5547 14.2852 77.7969 13.1641 78.2812 12.1797C78.7656 11.1953 79.4629 10.4336 80.373 9.89453C81.2832 9.35547 82.3398 9.08594 83.543 9.08594C85.2539 9.08594 86.6504 9.60938 87.7324 10.6562C88.8145 11.7031 89.418 13.125 89.543 14.9219L89.5664 15.7891C89.5664 17.7344 89.0234 19.2949 87.9375 20.4707C86.8516 21.6465 85.3945 22.2344 83.5664 22.2344C81.7383 22.2344 80.2793 21.6484 79.1895 20.4766C78.0996 19.3047 77.5547 17.7109 77.5547 15.6953L77.5547 15.543ZM80.9414 15.7891C80.9414 16.9922 81.168 17.9121 81.6211 18.5488C82.0742 19.1855 82.7227 19.5039 83.5664 19.5039C84.3867 19.5039 85.0273 19.1895 85.4883 18.5605C85.9492 17.9316 86.1797 16.9258 86.1797 15.543C86.1797 14.3633 85.9492 13.4492 85.4883 12.8008C85.0273 12.1523 84.3789 11.8281 83.543 11.8281C82.7148 11.8281 82.0742 12.1504 81.6211 12.7949C81.168 13.4395 80.9414 14.4375 80.9414 15.7891Z" fill="rgb(9.73958,20.4531,58.4375)" fill-rule="nonzero" />
	</g>
</svg>
