<svg viewBox="0 0 91 28"
  xmlns="http://www.w3.org/2000/svg"
  xmlns:xlink="http://www.w3.org/1999/xlink" width="91.000000" height="28.000000" fill="none" customFrame="#000000">
  <defs>
    <clipPath id="clipPath_0">
      <rect width="27.000000" height="27.000000" x="0.000000" y="0.000000" fill="rgb(255,255,255)" />
    </clipPath>
  </defs>
  <g id="Group 7">
    <g id="box 1" clip-path="url(#clipPath_0)" customFrame="url(#clipPath_0)">
      <rect id="box 1" width="27.000000" height="27.000000" x="0.000000" y="0.000000" fill="rgb(255,255,255)" fill-opacity="0" />
      <g id="Group">
        <path id="Vector" d="M26.9947 6.65895C26.9632 6.36854 26.7827 6.11151 26.513 5.98563L13.8567 0.0793852C13.6306 -0.0261362 13.3693 -0.0261362 13.1431 0.0793852L0.486896 5.98563C0.217213 6.11151 0.0367559 6.36848 0.00516797 6.65895C0.00448242 6.66501 0 6.7458 0 6.75023L0 21.094C0 21.439 0.210041 21.7493 0.530402 21.8773L13.1867 26.9398C13.2872 26.9801 13.3936 27.0002 13.5 27.0002C13.6064 27.0002 13.7128 26.9801 13.8133 26.9398L26.4696 21.8773C26.79 21.7493 27 21.439 27 21.094L27 6.75023C27 6.7458 26.9954 6.66496 26.9947 6.65895ZM13.5 1.77506L24.0334 6.69064L19.9774 8.31307L9.24576 3.7604L13.5 1.77506ZM7.18822 4.72059L17.7533 9.20264L13.5 10.904L2.96662 6.69064L7.18822 4.72059ZM1.6875 7.99645L12.6562 12.3839L12.6562 24.9102L1.6875 20.5227L1.6875 7.99645ZM14.3438 24.9103L14.3438 12.3839L25.3125 7.99645L25.3125 20.5227L14.3438 24.9103Z" fill="rgb(9.73958,20.4531,58.4375)" fill-rule="nonzero" />
      </g>
    </g>
    <path id="Abito" d="M44.1562 18.4844L37.9922 18.4844L36.8203 22L33.082 22L39.4336 4.9375L42.6914 4.9375L49.0781 22L45.3398 22L44.1562 18.4844ZM38.9414 15.6367L43.207 15.6367L41.0625 9.25L38.9414 15.6367ZM61.875 15.7773Q61.875 18.8242 60.5742 20.5293Q59.2734 22.2344 56.9414 22.2344Q54.8789 22.2344 53.6484 20.6523L53.4961 22L50.4492 22L50.4492 4L53.8359 4L53.8359 10.457Q55.0078 9.08594 56.918 9.08594Q59.2383 9.08594 60.5566 10.791Q61.875 12.4961 61.875 15.5898L61.875 15.7773ZM58.4883 15.5312Q58.4883 13.6094 57.8789 12.7246Q57.2695 11.8398 56.0625 11.8398Q54.4453 11.8398 53.8359 13.1641L53.8359 18.168Q54.457 19.5039 56.0859 19.5039Q57.7266 19.5039 58.2422 17.8867Q58.4883 17.1133 58.4883 15.5312ZM67.5352 22L64.1367 22L64.1367 9.32031L67.5352 9.32031L67.5352 22ZM63.9375 6.03906Q63.9375 5.27734 64.4473 4.78516Q64.957 4.29297 65.8359 4.29297Q66.7031 4.29297 67.2188 4.78516Q67.7344 5.27734 67.7344 6.03906Q67.7344 6.8125 67.2129 7.30469Q66.6914 7.79688 65.8359 7.79688Q64.9805 7.79688 64.459 7.30469Q63.9375 6.8125 63.9375 6.03906ZM74.3789 6.20312L74.3789 9.32031L76.5469 9.32031L76.5469 11.8047L74.3789 11.8047L74.3789 18.1328Q74.3789 18.8359 74.6484 19.1406Q74.918 19.4453 75.6797 19.4453Q76.2422 19.4453 76.6758 19.3633L76.6758 21.9297Q75.6797 22.2344 74.625 22.2344Q71.0625 22.2344 70.9922 18.6367L70.9922 11.8047L69.1406 11.8047L69.1406 9.32031L70.9922 9.32031L70.9922 6.20312L74.3789 6.20312ZM77.5547 15.543Q77.5547 13.6562 78.2812 12.1797Q79.0078 10.7031 80.373 9.89453Q81.7383 9.08594 83.543 9.08594Q86.1094 9.08594 87.7324 10.6562Q89.3555 12.2266 89.543 14.9219L89.5664 15.7891Q89.5664 18.707 87.9375 20.4707Q86.3086 22.2344 83.5664 22.2344Q80.8242 22.2344 79.1895 20.4766Q77.5547 18.7188 77.5547 15.6953L77.5547 15.543ZM80.9414 15.7891Q80.9414 17.5938 81.6211 18.5488Q82.3008 19.5039 83.5664 19.5039Q84.7969 19.5039 85.4883 18.5605Q86.1797 17.6172 86.1797 15.543Q86.1797 13.7734 85.4883 12.8008Q84.7969 11.8281 83.543 11.8281Q82.3008 11.8281 81.6211 12.7949Q80.9414 13.7617 80.9414 15.7891Z" fill="rgb(9.73958,20.4531,58.4375)" fill-rule="nonzero" />
  </g>
</svg>
